<?xml version="1.0" encoding="UTF-8"?>
<svg width="48px" height="48px" viewBox="0 0 48 48" version="1.1" xmlns="http://www.w3.org/2000/svg" xmlns:xlink="http://www.w3.org/1999/xlink">
    <title>wechat@3x</title>
    <g id="wechat" stroke="none" stroke-width="1" fill="none" fill-rule="evenodd">
        <circle id="椭圆形" fill="#000000" cx="24" cy="24" r="20"></circle>
        <path d="M28.7850843,20.5198129 C32.6006416,20.5198129 36,23.3502338 36,26.8254984 C36,28.7846419 34.7297514,30.5198129 33.0240578,31.8291903 L33.0240578,31.8291903 L33.6639936,34 L31.3352045,32.6955452 C30.4859663,32.9121339 29.6319167,33.1311838 28.7850843,33.1311838 C24.7433842,33.1311838 21.5605453,30.3056854 21.5605453,26.8254984 C21.5605453,23.3526951 24.7433842,20.5198129 28.7850843,20.5198129 Z M20.4947875,14 C24.671211,14 28.3303929,16.601526 29.0665597,20.1014029 C28.7971131,20.0694068 28.5252607,20.0497169 28.2485966,20.0497169 C24.2141139,20.0497169 21.0264635,23.1311839 21.0264635,26.9288703 C21.0264635,27.5614078 21.1226945,28.169333 21.2886929,28.7501846 C21.0264635,28.7723357 20.7618284,28.7846419 20.4947875,28.7846419 C19.4338412,28.7846419 18.5821973,28.5631307 17.5188452,28.3490032 L17.5188452,28.3490032 L14.5501203,29.872508 L15.3993585,27.2586758 C13.2726544,25.7376323 12,23.7784888 12,21.3910903 C12,17.2562146 15.8251804,14 20.4947875,14 Z M26.5501203,23.8917056 C26.0184443,23.8917056 25.5878107,24.3322667 25.5878107,24.8761998 C25.5878107,25.4201329 26.0184443,25.860694 26.5501203,25.860694 C27.0817964,25.860694 27.5124298,25.4176716 27.5124298,24.8761998 C27.5124298,24.3322667 27.0817964,23.8917056 26.5501203,23.8917056 Z M31.2245389,23.884322 C30.6928629,23.884322 30.2622294,24.3248831 30.2622294,24.8688162 C30.2622294,25.4127492 30.6928629,25.8533104 31.2245389,25.8533104 C31.7562149,25.8533104 32.1868485,25.4127492 32.1868485,24.8688162 C32.1868485,24.3248831 31.7562149,23.884322 31.2245389,23.884322 Z M17.6415397,17.6007876 C17.0040096,17.6007876 16.4867682,18.1299532 16.4867682,18.7821806 C16.4867682,19.4344081 17.0040096,19.9635737 17.6415397,19.9635737 C18.2790698,19.9635737 18.7963111,19.4344081 18.7963111,18.7821806 C18.7963111,18.1299532 18.2790698,17.6007876 17.6415397,17.6007876 Z M23.574178,17.6007876 C22.936648,17.6007876 22.4194065,18.1299532 22.4194065,18.7821806 C22.4194065,19.4344081 22.936648,19.9635737 23.574178,19.9635737 C24.2117081,19.9635737 24.7289494,19.4344081 24.7289494,18.7821806 C24.7289494,18.1299532 24.2117081,17.6007876 23.574178,17.6007876 Z" id="形状结合" fill="#FFFFFF" fill-rule="nonzero"></path>
    </g>
</svg>