<?xml version="1.0" encoding="UTF-8"?>
<svg width="48px" height="48px" viewBox="0 0 48 48" version="1.1" xmlns="http://www.w3.org/2000/svg" xmlns:xlink="http://www.w3.org/1999/xlink">
    <title>weibo@3x</title>
    <g id="weibo" stroke="none" stroke-width="1" fill="none" fill-rule="evenodd">
        <circle id="椭圆形" fill="#000000" cx="24" cy="24" r="20"></circle>
        <path d="M15.5728326,20.3665325 C18.5910395,17.3585825 22.1107636,15.9884075 23.4344502,17.3087825 C24.0185003,17.8901825 24.0750771,18.8976575 23.6996539,20.1002075 C23.5039674,20.7059825 24.2699361,20.3705825 24.2699361,20.3718575 C26.7095097,19.3536575 28.837911,19.2936575 29.6157668,20.4017825 C30.0309141,20.9922575 29.99119,21.8201825 29.6085442,22.7797325 C29.4315912,23.2217825 29.6630144,23.2902575 30.0004439,23.3912825 C31.3750646,23.8160825 32.9049705,24.8435825 32.9049705,26.6542325 C32.9049705,29.6510075 28.5698483,33.4256075 22.0528326,33.4256075 C17.0815223,33.4256075 11.9999925,31.0238825 11.9999925,27.0737075 C11.9999925,25.0084325 13.312469,22.6202825 15.5728326,20.3665325 Z M28.7829141,26.5999325 C28.5257605,24.0047075 25.1013592,22.2171575 21.1340614,22.6081325 C17.1675912,22.9991075 14.1596163,25.4202575 14.4172966,28.0160075 C14.6749768,30.6124325 18.0993028,32.3999825 22.0661492,32.0097575 C26.0335223,31.6184825 29.0402182,29.1971825 28.7829141,26.5999325 Z M17.6214169,26.712485 C18.4413292,25.05446 20.5749216,24.11666 22.4625705,24.606185 C24.4161254,25.10951 25.4129906,26.94671 24.6145204,28.73096 C23.8049906,30.55631 21.4764639,31.52951 19.5010157,30.89441 C17.5938056,30.280835 16.7863824,28.403585 17.6214169,26.712485 Z M20.5780063,27.340385 C19.9637868,27.08366 19.1697555,27.347585 18.790721,27.94016 C18.4069467,28.53521 18.5869843,29.243885 19.1969906,29.520785 C19.8157994,29.802485 20.637442,29.535035 21.0211411,28.92476 C21.3979185,28.30856 21.1995235,27.604385 20.5780063,27.340385 Z M22.0920376,26.71466 C21.856326,26.621435 21.5615549,26.734235 21.423348,26.96546 C21.2891285,27.197735 21.3631599,27.462335 21.5993981,27.55916 C21.8397743,27.657785 22.1464326,27.543935 22.2851661,27.30761 C22.4175799,27.06941 22.331511,26.80196 22.0920376,26.71466 Z M28.2903799,14.213735 C30.4330006,13.75961 32.7543799,14.42276 34.3282232,16.16216 C35.9025179,17.899835 36.3268439,20.268785 35.6552201,22.346885 C35.6549191,22.34771 35.6549191,22.34951 35.6549191,22.35041 C35.498731,22.830485 34.9811887,23.093435 34.4998345,22.93796 C34.0165241,22.782485 33.7524489,22.26761 33.9084113,21.78641 L33.9084113,21.78641 L33.9741225,21.5630305 C34.3545137,20.1413593 34.0274445,18.5617325 32.9655649,17.38796 C31.8468188,16.152335 30.1971386,15.68036 28.6728752,16.00301 C28.1770006,16.10846 27.6894019,15.792935 27.5836966,15.299135 C27.4775398,14.80586 27.7936777,14.31956 28.2894771,14.213735 L28.2894771,14.213735 Z M28.9702796,17.38877 C30.0143172,17.16752 31.1454019,17.48927 31.9113705,18.336395 C32.6789191,19.18337 32.8842357,20.337245 32.5561354,21.349445 C32.4222169,21.76382 31.9769003,21.98942 31.561753,21.85697 C31.1467561,21.72302 30.9197718,21.27857 31.0535398,20.865245 L31.0535398,20.865245 C31.2135649,20.37002 31.1128251,19.805645 30.7379285,19.39142 C30.3634834,18.978095 29.8100539,18.821195 29.2997342,18.928745 L29.2997342,18.928745 C28.8739787,19.020245 28.4543172,18.747845 28.3630571,18.32387 C28.2715712,17.898095 28.5435461,17.479445 28.9702796,17.38877 Z" id="形状结合" fill="#FFFFFF"></path>
    </g>
</svg>